HIERARCHY
ROOT root
{
  OFFSET 0 98.6856 0
  CHANNELS 6 Xposition Yposition Zposition Zrotation Xrotation Yrotation
  JOINT torso_1
  {
    OFFSET 0 5.37224 -1.21793
    CHANNELS 6 Xposition Yposition Zposition Zrotation Xrotation Yrotation
    JOINT torso_2
    {
      OFFSET 0 5.94127 1.13336
      CHANNELS 6 Xposition Yposition Zposition Zrotation Xrotation Yrotation
      JOINT torso_3
      {
        OFFSET -1.08535e-17 6.33601 0.121658
        CHANNELS 6 Xposition Yposition Zposition Zrotation Xrotation Yrotation
        JOINT torso_4
        {
          OFFSET -1.16841e-17 6.88189 -0.46916
          CHANNELS 6 Xposition Yposition Zposition Zrotation Xrotation Yrotation
          JOINT torso_5
          {
            OFFSET -2.08699e-17 8.0451 -1.59297
            CHANNELS 6 Xposition Yposition Zposition Zrotation Xrotation Yrotation
            JOINT torso_6
            {
              OFFSET -2.67949e-17 10.0463 -0.967353
              CHANNELS 6 Xposition Yposition Zposition Zrotation Xrotation Yrotation
              JOINT torso_7
              {
                OFFSET -3.07187e-17 11.1612 1.66806
                CHANNELS 6 Xposition Yposition Zposition Zrotation Xrotation Yrotation
                JOINT neck_1
                {
                  OFFSET -1.36661e-17 5.06312 0.756688
                  CHANNELS 6 Xposition Yposition Zposition Zrotation Xrotation Yrotation
                  JOINT neck_2
                  {
                    OFFSET -1.91632e-17 5.09976 0.446172
                    CHANNELS 6 Xposition Yposition Zposition Zrotation Xrotation Yrotation
                    JOINT head
                    {
                      OFFSET -2.12574e-17 5.10962 0.809285
                      CHANNELS 6 Xposition Yposition Zposition Zrotation Xrotation Yrotation
                      End Site
                      {
                        OFFSET 0 0.1 0
                      }
                    }
                  }
                }
                JOINT l_shoulder
                {
                  OFFSET 1.30426 -8.04703 7.96922
                  CHANNELS 6 Xposition Yposition Zposition Zrotation Xrotation Yrotation
                  JOINT l_up_arm
                  {
                    OFFSET 13.7035 3.43734 -3.45766
                    CHANNELS 6 Xposition Yposition Zposition Zrotation Xrotation Yrotation
                    JOINT l_low_arm
                    {
                      OFFSET 30.8964 0.0632652 0.14496
                      CHANNELS 6 Xposition Yposition Zposition Zrotation Xrotation Yrotation
                      JOINT l_hand
                      {
                        OFFSET 25.6348 0.0524902 0.120274
                        CHANNELS 6 Xposition Yposition Zposition Zrotation Xrotation Yrotation
                        End Site
                        {
                          OFFSET 0.1 0 0
                        }
                      }
                    }
                  }
                }
                JOINT r_shoulder
                {
                  OFFSET -1.30426 -8.04702 7.96912
                  CHANNELS 6 Xposition Yposition Zposition Zrotation Xrotation Yrotation
                  JOINT r_up_arm
                  {
                    OFFSET -13.7035 3.43734 -3.45766
                    CHANNELS 6 Xposition Yposition Zposition Zrotation Xrotation Yrotation
                    JOINT r_low_arm
                    {
                      OFFSET -30.8964 0.0632652 0.14496
                      CHANNELS 6 Xposition Yposition Zposition Zrotation Xrotation Yrotation
                      JOINT r_hand
                      {
                        OFFSET -25.6348 0.0524901 0.120274
                        CHANNELS 6 Xposition Yposition Zposition Zrotation Xrotation Yrotation
                        End Site
                        {
                          OFFSET -0.1 0 0
                        }
                      }
                    }
                  }
                }
              }
            }
          }
        }
      }
    }
  }
  JOINT l_up_leg
  {
    OFFSET 9.77065 -4.44866 2.1502
    CHANNELS 6 Xposition Yposition Zposition Zrotation Xrotation Yrotation
    JOINT l_low_leg
    {
      OFFSET -0.901622 -41.0132 -0.693059
      CHANNELS 6 Xposition Yposition Zposition Zrotation Xrotation Yrotation
      JOINT l_foot
      {
        OFFSET -2.46068 -42.7371 -6.39839
        CHANNELS 6 Xposition Yposition Zposition Zrotation Xrotation Yrotation
        JOINT l_toes
        {
          OFFSET 0.82413 -10.4558 13.2182
          CHANNELS 6 Xposition Yposition Zposition Zrotation Xrotation Yrotation
          End Site
          {
            OFFSET 0 0 0.1
          }
        }
      }
    }
  }
  JOINT r_up_leg
  {
    OFFSET -9.77065 -4.44866 2.1502
    CHANNELS 6 Xposition Yposition Zposition Zrotation Xrotation Yrotation
    JOINT r_low_leg
    {
      OFFSET 0.901622 -41.0132 -0.693059
      CHANNELS 6 Xposition Yposition Zposition Zrotation Xrotation Yrotation
      JOINT r_foot
      {
        OFFSET 2.46068 -42.7371 -6.39839
        CHANNELS 6 Xposition Yposition Zposition Zrotation Xrotation Yrotation
        JOINT r_toes
        {
          OFFSET -0.82413 -10.4558 13.2182
          CHANNELS 6 Xposition Yposition Zposition Zrotation Xrotation Yrotation
          End Site
          {
            OFFSET 0 0 0.1
          }
        }
      }
    }
  }
}
MOTION
Frames: 4
Frame Time: 0.02
0 98.6856 0 -0 0 -0 0 5.37224 -1.21793 -0 0 -0 0 5.94127 1.13336 -0 0 -0 -1.08535e-17 6.33601 0.121658 -0 0 -0 -1.16841e-17 6.88189 -0.46916 -0 0 -0 -2.08699e-17 8.0451 -1.59297 -0 0 -0 -2.67949e-17 10.0463 -0.967353 -0 0 -0 -3.07187e-17 11.1612 1.66806 -0 0 -0 -1.36661e-17 5.06312 0.756688 -0 0 -0 -1.91632e-17 5.09976 0.446172 -0 0 -0 -2.12574e-17 5.10962 0.809285 -0 0 -0 1.30426 -8.04703 7.96922 -0 0 -0 13.7035 3.43734 -3.45766 -0 0 -0 30.8964 0.0632652 0.14496 -0 0 -0 25.6348 0.0524902 0.120274 -0 0 -0 -1.30426 -8.04702 7.96912 -0 0 -0 -13.7035 3.43734 -3.45766 -0 0 -0 -30.8964 0.0632652 0.14496 -0 0 -0 -25.6348 0.0524901 0.120274 -0 0 -0 9.77065 -4.44866 2.1502 -0 0 -0 -0.901622 -41.0132 -0.693059 -0 0 -0 -2.46068 -42.7371 -6.39839 -0 0 -0 0.82413 -10.4558 13.2182 -0 0 -0 -9.77065 -4.44866 2.1502 -0 0 -0 0.901622 -41.0132 -0.693059 -0 0 -0 2.46068 -42.7371 -6.39839 -0 0 -0 -0.82413 -10.4558 13.2182 -0 0 -0 
-13.8145 97.955 -113.286 -1.2641 -2.6013 -9.28104 0 5.37224 -1.21793 -0.344537 5.40234 -0.487214 0 5.94127 1.13336 -0.0526952 4.84407 -0.499346 -1.08535e-17 6.33601 0.121658 0.255398 4.78522 -0.46734 -1.16841e-17 6.88189 -0.46916 0.571039 4.83832 -0.415314 -2.08699e-17 8.0451 -1.59297 0.816457 4.13286 -0.598462 -2.67949e-17 10.0463 -0.967353 0.895318 4.04368 -0.943694 -3.07187e-17 11.1612 1.66806 0.00361351 0.0990799 -0.0317519 -1.36661e-17 5.06312 0.756688 2.66683 11.9118 -8.46644 -1.91632e-17 5.09976 0.446172 5.80475 -2.26824 -3.88305 -2.12574e-17 5.10962 0.809285 4.197 -4.81638 -2.37897 1.30426 -8.04703 7.96922 -1.78372 -1.0624 -0.620816 13.7035 3.43734 -3.45766 -74.2355 0.901137 -12.2624 30.8964 0.0632652 0.14496 4.14113 -0.721506 -20.3541 25.6348 0.0524902 0.120274 -3.18073 -47.7513 -4.51679 -1.30426 -8.04702 7.96912 -9.15267 -2.94612 -1.61621 -13.7035 3.43734 -3.45766 78.3421 3.30391 18.9676 -30.8964 0.0632652 0.14496 -7.8419 -2.89249 41.0354 -25.6348 0.0524901 0.120274 -1.02988 -23.8595 2.3081 9.77065 -4.44866 2.1502 0.675234 1.55881 -8.93018 -0.901622 -41.0132 -0.693059 -0.305565 1.14085 -0.0168712 -2.46068 -42.7371 -6.39839 1.28046 -2.91139 15.2414 0.82413 -10.4558 13.2182 4.96962e-17 -7.95139e-16 1.2424e-17 -9.77065 -4.44866 2.1502 -0.877596 -7.75645 31.2785 0.901622 -41.0132 -0.693059 2.94911 10.9388 -0.0908793 2.46068 -42.7371 -6.39839 1.95038 0.332536 -15.5352 -0.82413 -10.4558 13.2182 -5.96354e-16 -5.59082e-16 -1.27471e-14 
-14.0731 97.9845 -113.121 -0.988523 -2.63434 -8.96291 0 5.37224 -1.21793 -0.361797 5.30085 -0.424858 0 5.94127 1.13336 -0.081862 4.73369 -0.441444 -1.08535e-17 6.33601 0.121658 0.222047 4.65745 -0.406983 -1.16841e-17 6.88189 -0.46916 0.534658 4.67201 -0.356349 -2.08699e-17 8.0451 -1.59297 0.778807 3.94256 -0.525792 -2.67949e-17 10.0463 -0.967353 0.870332 3.84071 -0.853645 -3.07187e-17 11.1612 1.66806 0.0029464 0.0997832 -0.0307122 -1.36661e-17 5.06312 0.756688 2.6787 12.1367 -8.86011 -1.91632e-17 5.09976 0.446172 5.83923 -2.00515 -4.02889 -2.12574e-17 5.10962 0.809285 4.26038 -4.68754 -2.32124 1.30426 -8.04703 7.96922 -1.43807 -1.15042 -0.301126 13.7035 3.43734 -3.45766 -73.8775 -0.703979 -11.2937 30.8964 0.0632652 0.14496 4.54895 -0.87893 -22.4557 25.6348 0.0524902 0.120274 -3.38016 -48.9813 -4.63795 -1.30426 -8.04702 7.96912 -9.50339 -2.98209 -1.77135 -13.7035 3.43734 -3.45766 78.235 1.44538 18.0014 -30.8964 0.0632652 0.14496 -8.33853 -3.3444 44.2432 -25.6348 0.0524901 0.120274 -1.13114 -24.4245 2.30897 9.77065 -4.44866 2.1502 0.543003 1.59993 -9.28586 -0.901622 -41.0132 -0.693059 -0.315288 1.17716 -0.0173084 -2.46068 -42.7371 -6.39839 1.13941 -2.6887 15.234 0.82413 -10.4558 13.2182 4.96962e-17 -7.95139e-16 1.2424e-17 -9.77065 -4.44866 2.1502 -1.27524 -7.32414 29.8397 0.901622 -41.0132 -0.693059 2.87748 10.6779 -0.0820036 2.46068 -42.7371 -6.39839 1.52621 -0.642336 -15.4954 -0.82413 -10.4558 13.2182 -5.96354e-16 -5.59082e-16 -1.27471e-14 
-14.3265 98.0412 -112.946 -0.787292 -2.64748 -8.58227 0 5.37224 -1.21793 -0.335411 5.14231 -0.371947 0 5.94127 1.13336 -0.0752332 4.5895 -0.386989 -1.08535e-17 6.33601 0.121658 0.217265 4.51586 -0.349563 -1.16841e-17 6.88189 -0.46916 0.518651 4.52467 -0.300067 -2.08699e-17 8.0451 -1.59297 0.755025 3.79245 -0.460346 -2.67949e-17 10.0463 -0.967353 0.849861 3.68266 -0.77387 -3.07187e-17 11.1612 1.66806 0.00218703 0.0997521 -0.0297161 -1.36661e-17 5.06312 0.756688 2.6877 12.3695 -9.2186 -1.91632e-17 5.09976 0.446172 5.8671 -1.7406 -4.1599 -2.12574e-17 5.10962 0.809285 4.30129 -4.5499 -2.36472 1.30426 -8.04703 7.96922 -1.00899 -1.3101 0.0383879 13.7035 3.43734 -3.45766 -73.6036 -2.40837 -10.4432 30.8964 0.0632652 0.14496 4.97018 -1.05998 -24.6587 25.6348 0.0524902 0.120274 -3.52595 -50.0596 -4.65013 -1.30426 -8.04702 7.96912 -9.88637 -3.05135 -1.92643 -13.7035 3.43734 -3.45766 78.1075 -0.50674 17.0845 -30.8964 0.0632652 0.14496 -8.80404 -3.8177 47.4118 -25.6348 0.0524901 0.120274 -1.20427 -24.7865 2.30272 9.77065 -4.44866 2.1502 0.488725 1.59705 -9.70468 -0.901622 -41.0132 -0.693059 -0.338729 1.26472 -0.0183371 -2.46068 -42.7371 -6.39839 0.967082 -2.47726 15.2368 0.82413 -10.4558 13.2182 4.96962e-17 -7.95139e-16 1.2424e-17 -9.77065 -4.44866 2.1502 -1.51999 -6.88343 28.9467 0.901622 -41.0132 -0.693059 2.77828 10.3158 -0.0702531 2.46068 -42.7371 -6.39839 1.2429 -0.998503 -15.466 -0.82413 -10.4558 13.2182 -9.93923e-16 -5.46658e-16 -1.27222e-14 
